<mxfile host="app.diagrams.net" agent="Mozilla/5.0 (Windows NT 10.0; Win64; x64) AppleWebKit/537.36 (KHTML, like Gecko) Chrome/131.0.0.0 Safari/537.36 Edg/131.0.0.0" version="27.0.9">
  <diagram name="第 1 页" id="Uu89Cc4SLeKXmtY2a2k6">
    <mxGraphModel dx="1678" dy="987" grid="1" gridSize="10" guides="1" tooltips="1" connect="1" arrows="1" fold="1" page="1" pageScale="1" pageWidth="827" pageHeight="1169" math="0" shadow="0">
      <root>
        <mxCell id="0" />
        <mxCell id="1" parent="0" />
        <mxCell id="0M78ccLYJPc-vJ8q9qB6-1" value="初始化全像素扫描" style="whiteSpace=wrap;strokeWidth=2;" vertex="1" parent="1">
          <mxGeometry x="103" y="20" width="188" height="54" as="geometry" />
        </mxCell>
        <mxCell id="0M78ccLYJPc-vJ8q9qB6-2" value="是否达到切换阈值？" style="rhombus;strokeWidth=2;whiteSpace=wrap;" vertex="1" parent="1">
          <mxGeometry x="98" y="124" width="198" height="198" as="geometry" />
        </mxCell>
        <mxCell id="0M78ccLYJPc-vJ8q9qB6-3" value="继续全扫描" style="whiteSpace=wrap;strokeWidth=2;" vertex="1" parent="1">
          <mxGeometry x="20" y="395" width="140" height="54" as="geometry" />
        </mxCell>
        <mxCell id="0M78ccLYJPc-vJ8q9qB6-4" value="启用区域采样模式" style="whiteSpace=wrap;strokeWidth=2;" vertex="1" parent="1">
          <mxGeometry x="210" y="395" width="188" height="54" as="geometry" />
        </mxCell>
        <mxCell id="0M78ccLYJPc-vJ8q9qB6-5" value="构建像素影响力热力图" style="whiteSpace=wrap;strokeWidth=2;" vertex="1" parent="1">
          <mxGeometry x="194" y="499" width="220" height="54" as="geometry" />
        </mxCell>
        <mxCell id="0M78ccLYJPc-vJ8q9qB6-6" value="动态筛选高影响力区域" style="whiteSpace=wrap;strokeWidth=2;" vertex="1" parent="1">
          <mxGeometry x="194" y="603" width="220" height="54" as="geometry" />
        </mxCell>
        <mxCell id="0M78ccLYJPc-vJ8q9qB6-7" value="仅扫描选定区域" style="whiteSpace=wrap;strokeWidth=2;" vertex="1" parent="1">
          <mxGeometry x="218" y="707" width="172" height="54" as="geometry" />
        </mxCell>
        <mxCell id="0M78ccLYJPc-vJ8q9qB6-8" value="是否达到局部收敛？" style="rhombus;strokeWidth=2;whiteSpace=wrap;" vertex="1" parent="1">
          <mxGeometry x="205" y="834" width="198" height="198" as="geometry" />
        </mxCell>
        <mxCell id="0M78ccLYJPc-vJ8q9qB6-9" value="切回全扫描模式" style="whiteSpace=wrap;strokeWidth=2;" vertex="1" parent="1">
          <mxGeometry x="218" y="1105" width="172" height="54" as="geometry" />
        </mxCell>
        <mxCell id="0M78ccLYJPc-vJ8q9qB6-10" value="" style="curved=1;startArrow=none;endArrow=block;exitX=0.5;exitY=1;entryX=0.5;entryY=0;rounded=0;" edge="1" parent="1" source="0M78ccLYJPc-vJ8q9qB6-1" target="0M78ccLYJPc-vJ8q9qB6-2">
          <mxGeometry relative="1" as="geometry">
            <Array as="points" />
          </mxGeometry>
        </mxCell>
        <mxCell id="0M78ccLYJPc-vJ8q9qB6-11" value="否" style="curved=1;startArrow=none;endArrow=block;exitX=0.11;exitY=1;entryX=0.5;entryY=0;rounded=0;" edge="1" parent="1" source="0M78ccLYJPc-vJ8q9qB6-2" target="0M78ccLYJPc-vJ8q9qB6-3">
          <mxGeometry relative="1" as="geometry">
            <Array as="points">
              <mxPoint x="90" y="359" />
            </Array>
          </mxGeometry>
        </mxCell>
        <mxCell id="0M78ccLYJPc-vJ8q9qB6-12" value="是" style="curved=1;startArrow=none;endArrow=block;exitX=0.89;exitY=1;entryX=0.5;entryY=0;rounded=0;" edge="1" parent="1" source="0M78ccLYJPc-vJ8q9qB6-2" target="0M78ccLYJPc-vJ8q9qB6-4">
          <mxGeometry relative="1" as="geometry">
            <Array as="points">
              <mxPoint x="304" y="359" />
            </Array>
          </mxGeometry>
        </mxCell>
        <mxCell id="0M78ccLYJPc-vJ8q9qB6-13" value="" style="curved=1;startArrow=none;endArrow=block;exitX=0.5;exitY=1;entryX=0.5;entryY=0;rounded=0;" edge="1" parent="1" source="0M78ccLYJPc-vJ8q9qB6-4" target="0M78ccLYJPc-vJ8q9qB6-5">
          <mxGeometry relative="1" as="geometry">
            <Array as="points" />
          </mxGeometry>
        </mxCell>
        <mxCell id="0M78ccLYJPc-vJ8q9qB6-14" value="" style="curved=1;startArrow=none;endArrow=block;exitX=0.5;exitY=1;entryX=0.5;entryY=0;rounded=0;" edge="1" parent="1" source="0M78ccLYJPc-vJ8q9qB6-5" target="0M78ccLYJPc-vJ8q9qB6-6">
          <mxGeometry relative="1" as="geometry">
            <Array as="points" />
          </mxGeometry>
        </mxCell>
        <mxCell id="0M78ccLYJPc-vJ8q9qB6-15" value="" style="curved=1;startArrow=none;endArrow=block;exitX=0.5;exitY=1;entryX=0.5;entryY=0;rounded=0;" edge="1" parent="1" source="0M78ccLYJPc-vJ8q9qB6-6" target="0M78ccLYJPc-vJ8q9qB6-7">
          <mxGeometry relative="1" as="geometry">
            <Array as="points" />
          </mxGeometry>
        </mxCell>
        <mxCell id="0M78ccLYJPc-vJ8q9qB6-16" value="" style="curved=1;startArrow=none;endArrow=block;exitX=0.46;exitY=1;entryX=0.44;entryY=0;rounded=0;" edge="1" parent="1" source="0M78ccLYJPc-vJ8q9qB6-7" target="0M78ccLYJPc-vJ8q9qB6-8">
          <mxGeometry relative="1" as="geometry">
            <Array as="points">
              <mxPoint x="289" y="798" />
            </Array>
          </mxGeometry>
        </mxCell>
        <mxCell id="0M78ccLYJPc-vJ8q9qB6-17" value="是" style="curved=1;startArrow=none;endArrow=block;exitX=0.5;exitY=1;entryX=0.5;entryY=0;rounded=0;" edge="1" parent="1" source="0M78ccLYJPc-vJ8q9qB6-8" target="0M78ccLYJPc-vJ8q9qB6-9">
          <mxGeometry relative="1" as="geometry">
            <Array as="points" />
          </mxGeometry>
        </mxCell>
        <mxCell id="0M78ccLYJPc-vJ8q9qB6-18" value="否" style="curved=1;startArrow=none;endArrow=block;exitX=0.56;exitY=0;entryX=0.54;entryY=1;rounded=0;" edge="1" parent="1" source="0M78ccLYJPc-vJ8q9qB6-8" target="0M78ccLYJPc-vJ8q9qB6-7">
          <mxGeometry relative="1" as="geometry">
            <Array as="points">
              <mxPoint x="319" y="798" />
            </Array>
          </mxGeometry>
        </mxCell>
      </root>
    </mxGraphModel>
  </diagram>
</mxfile>
